<mxfile host="app.diagrams.net" modified="2024-08-14T01:37:53.832Z" agent="Mozilla/5.0 (Windows NT 10.0; Win64; x64) AppleWebKit/537.36 (KHTML, like Gecko) Chrome/127.0.0.0 Safari/537.36" etag="H0PCN2_t3rajOiSlkj-o" version="24.0.2" type="device">
  <diagram name="PÃ¡gina-1" id="Jf3CER2ipXrKKhGIKlLF">
    <mxGraphModel dx="759" dy="407" grid="1" gridSize="10" guides="1" tooltips="1" connect="1" arrows="1" fold="1" page="1" pageScale="1" pageWidth="827" pageHeight="1169" math="0" shadow="0">
      <root>
        <mxCell id="0" />
        <mxCell id="1" parent="0" />
        <mxCell id="Mg945TCM2IU05SXgIQlT-5" value="Cliente" style="swimlane;childLayout=stackLayout;horizontal=1;startSize=50;horizontalStack=0;rounded=1;fontSize=14;fontStyle=0;strokeWidth=2;resizeParent=0;resizeLast=1;shadow=0;dashed=0;align=center;arcSize=4;whiteSpace=wrap;html=1;" vertex="1" parent="1">
          <mxGeometry x="40" y="23.75" width="170" height="120" as="geometry" />
        </mxCell>
        <mxCell id="Mg945TCM2IU05SXgIQlT-6" value="- Emprestimo&lt;div&gt;&lt;br&gt;&lt;/div&gt;&lt;div&gt;&lt;div&gt;+setEmprestimo(Emprestimo)&lt;/div&gt;&lt;div&gt;+fazerEmprestimo()&lt;/div&gt;&lt;/div&gt;" style="align=left;strokeColor=none;fillColor=none;spacingLeft=4;fontSize=12;verticalAlign=top;resizable=0;rotatable=0;part=1;html=1;" vertex="1" parent="Mg945TCM2IU05SXgIQlT-5">
          <mxGeometry y="50" width="170" height="70" as="geometry" />
        </mxCell>
        <mxCell id="Mg945TCM2IU05SXgIQlT-8" value="&lt;div style=&quot;font-size: 9px;&quot;&gt;&amp;lt;&amp;lt;interface&amp;gt;&amp;gt;&lt;/div&gt;Emprestimo" style="swimlane;childLayout=stackLayout;horizontal=1;startSize=50;horizontalStack=0;rounded=1;fontSize=14;fontStyle=0;strokeWidth=2;resizeParent=0;resizeLast=1;shadow=0;dashed=0;align=center;arcSize=4;whiteSpace=wrap;html=1;" vertex="1" parent="1">
          <mxGeometry x="354" y="38.75" width="120" height="90" as="geometry" />
        </mxCell>
        <mxCell id="Mg945TCM2IU05SXgIQlT-9" value="emprestar()" style="align=left;strokeColor=none;fillColor=none;spacingLeft=4;fontSize=12;verticalAlign=top;resizable=0;rotatable=0;part=1;html=1;" vertex="1" parent="Mg945TCM2IU05SXgIQlT-8">
          <mxGeometry y="50" width="120" height="40" as="geometry" />
        </mxCell>
        <mxCell id="Mg945TCM2IU05SXgIQlT-30" style="edgeStyle=orthogonalEdgeStyle;rounded=0;orthogonalLoop=1;jettySize=auto;html=1;entryX=0.5;entryY=1;entryDx=0;entryDy=0;dashed=1;endArrow=block;endFill=0;" edge="1" parent="1" source="Mg945TCM2IU05SXgIQlT-21" target="Mg945TCM2IU05SXgIQlT-9">
          <mxGeometry relative="1" as="geometry" />
        </mxCell>
        <mxCell id="Mg945TCM2IU05SXgIQlT-21" value="Comum" style="swimlane;childLayout=stackLayout;horizontal=1;startSize=50;horizontalStack=0;rounded=1;fontSize=14;fontStyle=0;strokeWidth=2;resizeParent=0;resizeLast=1;shadow=0;dashed=0;align=center;arcSize=4;whiteSpace=wrap;html=1;" vertex="1" parent="1">
          <mxGeometry x="280" y="180" width="120" height="90" as="geometry" />
        </mxCell>
        <mxCell id="Mg945TCM2IU05SXgIQlT-22" value="emprestar()" style="align=left;strokeColor=none;fillColor=none;spacingLeft=4;fontSize=12;verticalAlign=top;resizable=0;rotatable=0;part=1;html=1;" vertex="1" parent="Mg945TCM2IU05SXgIQlT-21">
          <mxGeometry y="50" width="120" height="40" as="geometry" />
        </mxCell>
        <mxCell id="Mg945TCM2IU05SXgIQlT-31" style="edgeStyle=orthogonalEdgeStyle;rounded=0;orthogonalLoop=1;jettySize=auto;html=1;entryX=0.5;entryY=1;entryDx=0;entryDy=0;dashed=1;endArrow=block;endFill=0;" edge="1" parent="1" source="Mg945TCM2IU05SXgIQlT-25" target="Mg945TCM2IU05SXgIQlT-9">
          <mxGeometry relative="1" as="geometry" />
        </mxCell>
        <mxCell id="Mg945TCM2IU05SXgIQlT-25" value="Especial" style="swimlane;childLayout=stackLayout;horizontal=1;startSize=50;horizontalStack=0;rounded=1;fontSize=14;fontStyle=0;strokeWidth=2;resizeParent=0;resizeLast=1;shadow=0;dashed=0;align=center;arcSize=4;whiteSpace=wrap;html=1;" vertex="1" parent="1">
          <mxGeometry x="430" y="180" width="120" height="90" as="geometry" />
        </mxCell>
        <mxCell id="Mg945TCM2IU05SXgIQlT-26" value="emprestar()" style="align=left;strokeColor=none;fillColor=none;spacingLeft=4;fontSize=12;verticalAlign=top;resizable=0;rotatable=0;part=1;html=1;" vertex="1" parent="Mg945TCM2IU05SXgIQlT-25">
          <mxGeometry y="50" width="120" height="40" as="geometry" />
        </mxCell>
        <mxCell id="Mg945TCM2IU05SXgIQlT-38" style="edgeStyle=orthogonalEdgeStyle;rounded=0;orthogonalLoop=1;jettySize=auto;html=1;entryX=0;entryY=0.5;entryDx=0;entryDy=0;exitX=0.999;exitY=0.139;exitDx=0;exitDy=0;exitPerimeter=0;startArrow=diamond;startFill=1;endArrow=none;endFill=0;strokeWidth=1;" edge="1" parent="1" source="Mg945TCM2IU05SXgIQlT-6" target="Mg945TCM2IU05SXgIQlT-8">
          <mxGeometry relative="1" as="geometry" />
        </mxCell>
      </root>
    </mxGraphModel>
  </diagram>
</mxfile>
